<svg xmlns="http://www.w3.org/2000/svg" viewBox="0 0 64 64" fill="none">
  <rect width="64" height="64" rx="8" fill="#F38020"/>
  <path d="M32 12C21 12 12 21 12 32s9 20 20 20 20-9 20-20-9-20-20-20zm0 36c-8.8 0-16-7.2-16-16s7.2-16 16-16 16 7.2 16 16-7.2 16-16 16z" fill="white"/>
  <path d="M32 20c-6.6 0-12 5.4-12 12s5.4 12 12 12 12-5.4 12-12-5.4-12-12-12zm0 20c-4.4 0-8-3.6-8-8s3.6-8 8-8 8 3.6 8 8-3.6 8-8 8z" fill="white"/>
  <circle cx="32" cy="32" r="4" fill="white"/>
  <path d="M44 28l6-6M44 36l6 6M20 28l-6-6M20 36l-6 6" stroke="white" stroke-width="2" stroke-linecap="round"/>
</svg>
